HIERARCHY
ROOT Hips
{
  OFFSET 5.84602e-005 68.8428 3.50346
  CHANNELS 6 Xposition Yposition Zposition Zrotation Xrotation Yrotation
  JOINT Spine
  {
    OFFSET 0 8.597 -4.6522
    CHANNELS 3 Zrotation Xrotation Yrotation
    JOINT Spine1
    {
      OFFSET 0 7.8454 0.4098
      CHANNELS 3 Zrotation Xrotation Yrotation
      JOINT Spine2
      {
        OFFSET 0 9.7078 -2.1609
        CHANNELS 3 Zrotation Xrotation Yrotation
        JOINT Neck
        {
          OFFSET 0 21.8761 -0.4549
          CHANNELS 3 Zrotation Xrotation Yrotation
          JOINT Head
          {
            OFFSET 0 12.3537 3.3602
            CHANNELS 3 Zrotation Xrotation Yrotation
            End Site
            {
              OFFSET 0.0001 18.9506 0.5657
            }
          }
        }
        JOINT LeftShoulder
        {
          OFFSET 2.2086 21.1115 7.2329
          CHANNELS 3 Zrotation Xrotation Yrotation
          JOINT LeftArm
          {
            OFFSET 13.1193 3.0282 -4.8998
            CHANNELS 3 Zrotation Xrotation Yrotation
            JOINT LeftForeArm
            {
              OFFSET 27.4081 -0.0973053 -0.2375
              CHANNELS 3 Zrotation Xrotation Yrotation
              JOINT LeftHand
              {
                OFFSET 22.8641 0.0662994 -0.1369
                CHANNELS 3 Zrotation Xrotation Yrotation
                JOINT LeftHandIndex1
                {
                  OFFSET 8.8614 0.775009 2.4612
                  CHANNELS 3 Zrotation Xrotation Yrotation
                  JOINT LeftHandIndex2
                  {
                    OFFSET 3.3146 -0.808304 0.5841
                    CHANNELS 3 Zrotation Xrotation Yrotation
                    JOINT LeftHandIndex3
                    {
                      OFFSET 2.2628 -0.552002 0.3989
                      CHANNELS 3 Zrotation Xrotation Yrotation
                      End Site
                      {
                        OFFSET 1.6102 -0.4807 0.2612
                      }
                    }
                  }
                }
                JOINT LeftHandMiddle1
                {
                  OFFSET 8.9937 0.895004 0.2143
                  CHANNELS 3 Zrotation Xrotation Yrotation
                  JOINT LeftHandMiddle2
                  {
                    OFFSET 4.0984 0.0113983 -0.0242
                    CHANNELS 3 Zrotation Xrotation Yrotation
                    JOINT LeftHandMiddle3
                    {
                      OFFSET 2.2716 0.00689697 -0.0138001
                      CHANNELS 3 Zrotation Xrotation Yrotation
                      End Site
                      {
                        OFFSET 2.0404 -0.1441 0.0027
                      }
                    }
                  }
                }
                JOINT LeftHandRing1
                {
                  OFFSET 8.5234 0.597198 -2.0164
                  CHANNELS 3 Zrotation Xrotation Yrotation
                  JOINT LeftHandRing2
                  {
                    OFFSET 3.7188 -0.188293 -0.2328
                    CHANNELS 3 Zrotation Xrotation Yrotation
                    JOINT LeftHandRing3
                    {
                      OFFSET 2.1191 -0.106598 -0.1332
                      CHANNELS 3 Zrotation Xrotation Yrotation
                      End Site
                      {
                        OFFSET 1.8737 -0.2304 -0.0886
                      }
                    }
                  }
                }
                JOINT LeftHandPinky1
                {
                  OFFSET 7.9094 -0.601089 -3.4825
                  CHANNELS 3 Zrotation Xrotation Yrotation
                  JOINT LeftHandPinky2
                  {
                    OFFSET 2.2874 -0.477005 -0.6314
                    CHANNELS 3 Zrotation Xrotation Yrotation
                    JOINT LeftHandPinky3
                    {
                      OFFSET 1.6774 -0.349396 -0.4633
                      CHANNELS 3 Zrotation Xrotation Yrotation
                      End Site
                      {
                        OFFSET 1.4888 -0.4091 -0.3416
                      }
                    }
                  }
                }
                JOINT LeftHandThumb1
                {
                  OFFSET 1.833 -1.3875 1.3896
                  CHANNELS 3 Zrotation Xrotation Yrotation
                  JOINT LeftHandThumb2
                  {
                    OFFSET 3.4129 -1.121 2.5732
                    CHANNELS 3 Zrotation Xrotation Yrotation
                    JOINT LeftHandThumb3
                    {
                      OFFSET 2.2474 -0.804199 1.6192
                      CHANNELS 3 Zrotation Xrotation Yrotation
                      End Site
                      {
                        OFFSET 1.6527 -0.5689 1.1317
                      }
                    }
                  }
                }
              }
            }
          }
        }
        JOINT RightShoulder
        {
          OFFSET -2.2086 21.1115 7.2329
          CHANNELS 3 Zrotation Xrotation Yrotation
          JOINT RightArm
          {
            OFFSET -13.1216 3.0287 -4.9007
            CHANNELS 3 Zrotation Xrotation Yrotation
            JOINT RightForeArm
            {
              OFFSET -27.4081 -0.0973053 -0.2375
              CHANNELS 3 Zrotation Xrotation Yrotation
              JOINT RightHand
              {
                OFFSET -22.8641 0.0664063 -0.1369
                CHANNELS 3 Zrotation Xrotation Yrotation
                JOINT RightHandIndex1
                {
                  OFFSET -8.8614 0.774994 2.4612
                  CHANNELS 3 Zrotation Xrotation Yrotation
                  JOINT RightHandIndex2
                  {
                    OFFSET -3.3146 -0.808304 0.5841
                    CHANNELS 3 Zrotation Xrotation Yrotation
                    JOINT RightHandIndex3
                    {
                      OFFSET -2.2628 -0.552002 0.3989
                      CHANNELS 3 Zrotation Xrotation Yrotation
                      End Site
                      {
                        OFFSET -1.6102 -0.4807 0.2612
                      }
                    }
                  }
                }
                JOINT RightHandMiddle1
                {
                  OFFSET -8.9937 0.894989 0.2143
                  CHANNELS 3 Zrotation Xrotation Yrotation
                  JOINT RightHandMiddle2
                  {
                    OFFSET -4.0984 0.0113983 -0.0242
                    CHANNELS 3 Zrotation Xrotation Yrotation
                    JOINT RightHandMiddle3
                    {
                      OFFSET -2.2716 0.00691223 -0.0138001
                      CHANNELS 3 Zrotation Xrotation Yrotation
                      End Site
                      {
                        OFFSET -2.0404 -0.1441 0.0027
                      }
                    }
                  }
                }
                JOINT RightHandRing1
                {
                  OFFSET -8.5234 0.597198 -2.0164
                  CHANNELS 3 Zrotation Xrotation Yrotation
                  JOINT RightHandRing2
                  {
                    OFFSET -3.7188 -0.188309 -0.2328
                    CHANNELS 3 Zrotation Xrotation Yrotation
                    JOINT RightHandRing3
                    {
                      OFFSET -2.1191 -0.106598 -0.1332
                      CHANNELS 3 Zrotation Xrotation Yrotation
                      End Site
                      {
                        OFFSET -1.8737 -0.2304 -0.0886
                      }
                    }
                  }
                }
                JOINT RightHandPinky1
                {
                  OFFSET -7.9094 -0.601105 -3.4825
                  CHANNELS 3 Zrotation Xrotation Yrotation
                  JOINT RightHandPinky2
                  {
                    OFFSET -2.2874 -0.477005 -0.6314
                    CHANNELS 3 Zrotation Xrotation Yrotation
                    JOINT RightHandPinky3
                    {
                      OFFSET -1.6774 -0.349396 -0.4633
                      CHANNELS 3 Zrotation Xrotation Yrotation
                      End Site
                      {
                        OFFSET -1.4888 -0.4091 -0.3416
                      }
                    }
                  }
                }
                JOINT RightHandThumb1
                {
                  OFFSET -1.833 -1.38751 1.3896
                  CHANNELS 3 Zrotation Xrotation Yrotation
                  JOINT RightHandThumb2
                  {
                    OFFSET -3.41299 -1.12099 2.5732
                    CHANNELS 3 Zrotation Xrotation Yrotation
                    JOINT RightHandThumb3
                    {
                      OFFSET -2.24741 -0.804108 1.6192
                      CHANNELS 3 Zrotation Xrotation Yrotation
                      End Site
                      {
                        OFFSET -1.6527 -0.5689 1.1317
                      }
                    }
                  }
                }
              }
            }
          }
        }
      }
    }
  }
  JOINT RightUpLeg
  {
    OFFSET -9.1966 3.8861 -0.7581
    CHANNELS 3 Zrotation Xrotation Yrotation
    JOINT RightLeg
    {
      OFFSET -0.7359 -41.0265 0
      CHANNELS 3 Zrotation Xrotation Yrotation
      JOINT RightFoot
      {
        OFFSET 0 -40.2855 0
        CHANNELS 3 Zrotation Xrotation Yrotation
        JOINT RightToeBase
        {
          OFFSET 0 -5.6122 11.7359
          CHANNELS 3 Zrotation Xrotation Yrotation
          End Site
          {
            OFFSET 0 0 7.8731
          }
        }
      }
    }
  }
  JOINT LeftUpLeg
  {
    OFFSET 9.1965 3.8864 -0.7581
    CHANNELS 3 Zrotation Xrotation Yrotation
    JOINT LeftLeg
    {
      OFFSET 0.7359 -41.0268 0
      CHANNELS 3 Zrotation Xrotation Yrotation
      JOINT LeftFoot
      {
        OFFSET 0 -40.2855 0
        CHANNELS 3 Zrotation Xrotation Yrotation
        JOINT LeftToeBase
        {
          OFFSET 0 -5.6122 11.7359
          CHANNELS 3 Zrotation Xrotation Yrotation
          End Site
          {
            OFFSET 0 0 7.8731
          }
        }
      }
    }
  }
}
MOTION
Frames:	4
Frame Time:	0.0333333
0.497906 -6.616 75.4688 -90.3963 -89.7304 89.3514 -1.79517 -5.39315 4.72501 -3.1572 -10.9142 9.34116 -3.15721 -10.9142 9.34116 6.054 1.87563 17.571 -5.23791e-006 -35.6203 -4.72397e-006 16.3208 -25.2783 5.65824 -103.956 -7.40827 -52.7599 -5.56995 -10.022 -89.6888 -43.0029 -23.3514 16.9553 3.05072e-007 1.06275e-006 6.87511e-007 -0 -3.57812e-015 -0 3.18055e-015 -3.18055e-015 -1.59028e-015 3.05072e-007 1.06275e-006 6.87511e-007 -0.0146015 -8.23191e-005 -3.32279e-006 -2.15625e-006 5.86344e-007 1.35385e-006 3.05072e-007 1.06275e-006 6.87511e-007 -0.0187454 -0.00117123 5.64079e-005 4.41391e-032 7.95139e-016 -3.18055e-015 3.05072e-007 1.06275e-006 6.87511e-007 -0.0122258 -0.00323617 0.000679216 -6.36111e-015 2.38542e-015 -0 3.05072e-007 1.06275e-006 6.87511e-007 -0 -3.57812e-015 -0 3.18055e-015 -3.18055e-015 -1.59028e-015 -2.62424 -20.829 -26.948 48.9325 -8.5215 43.9734 7.23514 -23.7094 93.1829 22.1317 6.76924 -9.00753 -1.17076e-006 -9.61364e-007 6.65695e-007 -1.17076e-006 -9.61364e-007 6.65695e-007 -3.18055e-015 2.98177e-015 3.18055e-015 -1.17076e-006 -9.61364e-007 6.65695e-007 0.014997 -9.48678e-005 -4.93764e-007 -6.36111e-015 -5.96354e-015 -3.97569e-016 -1.17076e-006 -9.61364e-007 6.65695e-007 0.0190191 -0.00119353 -6.52468e-005 -1.59028e-015 -1.03368e-014 2.78299e-015 -1.17076e-006 -9.61364e-007 6.65695e-007 0.0123017 -0.00326168 -0.000675194 -1.59028e-015 -1.35174e-014 -7.95139e-016 -1.17076e-006 -9.61364e-007 6.65695e-007 -1.17076e-006 -9.61364e-007 6.65695e-007 -3.18055e-015 2.98177e-015 3.18055e-015 -2.54289 -0.332128 -3.90881 -151.789 79.3178 148.444 -4.83149 49.5936 -5.24084 2.91712e-007 -2.95541e-006 7.75108e-007 4.52644 -1.59154 2.68785 12.7759 75.3619 -13.0517 3.83073 21.6948 -11.4611 -9.93923e-017 -7.95139e-016 -0 
0.497965 -6.61449 75.4675 -90.3963 -89.7304 89.3514 -1.85449 -5.42126 4.82156 -3.26478 -10.9775 9.52954 -3.26478 -10.9775 9.52955 6.20935 1.72362 17.955 5.71088e-006 -35.1835 1.03613e-005 16.1472 -25.0721 5.54741 -105.101 -7.2972 -52.9136 -5.53761 -9.71667 -89.7119 -43.7564 -23.5688 16.7447 -3.18055e-015 -7.95139e-016 3.18055e-015 3.18055e-015 0 4.77083e-015 -3.18055e-015 1.19271e-015 3.18055e-015 -3.18055e-015 -7.95139e-016 3.18055e-015 -0.0145806 -8.75661e-005 4.43755e-006 -3.18055e-015 1.03368e-014 3.18055e-015 -3.18055e-015 -7.95139e-016 3.18055e-015 -0.0187376 -0.00117507 6.23032e-005 -6.36111e-015 -7.95139e-016 -1.59028e-015 -3.18055e-015 -7.95139e-016 3.18055e-015 -0.0123185 -0.0032612 0.000681633 3.18055e-015 1.19271e-015 3.18055e-015 -3.18055e-015 -7.95139e-016 3.18055e-015 3.18055e-015 0 4.77083e-015 -3.18055e-015 1.19271e-015 3.18055e-015 -2.06735 -20.5621 -27.3407 48.9325 -8.52149 43.9734 7.23594 -23.7069 93.2003 22.3644 7.18022 -8.73988 -7.95139e-015 -1.19271e-015 -3.97569e-016 -1.40819e-006 7.9453e-008 -3.48068e-007 1.59028e-015 -2.5842e-015 2.78299e-015 -7.95139e-015 -1.19271e-015 -3.97569e-016 0.015008 -8.97335e-005 -3.86426e-006 -3.18055e-015 4.17448e-015 -0 -7.95139e-015 -1.19271e-015 -3.97569e-016 0.0189673 -0.0011873 -6.08392e-005 -7.03466e-032 1.0138e-014 3.97569e-016 -7.95139e-015 -1.19271e-015 -3.97569e-016 0.0122973 -0.00325553 -0.000679602 -3.18055e-015 -2.5842e-015 -2.38542e-015 -7.95139e-015 -1.19271e-015 -3.97569e-016 -1.40819e-006 7.9453e-008 -3.48068e-007 1.59028e-015 -2.5842e-015 2.78299e-015 -2.5427 -0.334624 -3.90878 -151.789 79.3178 148.445 -4.82967 49.5714 -5.23645 4.17191e-007 4.30427e-008 -7.38798e-007 4.52606 -1.58689 2.66695 12.1999 74.8968 -12.5359 3.66522 21.0198 -11.7763 2.3206e-007 -3.03402e-007 -6.89009e-008 
0.498022 -6.61297 75.4663 -90.3963 -89.7304 89.3514 -1.9143 -5.44926 4.91766 -3.37332 -11.0408 9.71693 -3.37332 -11.0408 9.71693 6.36571 1.57349 18.3391 1.07516e-005 -34.747 3.17732e-006 15.9744 -24.8657 5.43748 -106.24 -7.18361 -53.0644 -5.50514 -9.41145 -89.7352 -44.5107 -23.7833 16.531 -6.36111e-015 -5.1684e-015 -1.59028e-015 -1.43452e-031 -5.1684e-015 -1.59028e-015 -6.36111e-015 -5.96354e-015 -3.18055e-015 -6.36111e-015 -5.1684e-015 -1.59028e-015 -0.0146225 -9.18331e-005 -4.53612e-006 -2.15357e-006 4.59321e-007 1.2583e-006 -6.36111e-015 -5.1684e-015 -1.59028e-015 -0.0187316 -0.00117305 6.12031e-005 3.18055e-015 -2.38542e-015 1.59028e-015 -6.36111e-015 -5.1684e-015 -1.59028e-015 -0.0122877 -0.00325931 0.000676122 -1.10348e-031 3.97569e-015 1.59028e-015 -6.36111e-015 -5.1684e-015 -1.59028e-015 -1.43452e-031 -5.1684e-015 -1.59028e-015 -6.36111e-015 -5.96354e-015 -3.18055e-015 -1.51073 -20.2993 -27.7345 48.9325 -8.5215 43.9734 7.2367 -23.7044 93.2177 22.5953 7.59183 -8.47397 7.48907e-007 -3.30455e-006 -1.68012e-007 6.36111e-015 -9.54166e-015 2.38542e-015 1.92095e-006 -2.34408e-006 -8.35202e-007 7.48907e-007 -3.30455e-006 -1.68012e-007 0.0149778 -8.60133e-005 -1.23391e-006 1.92077e-006 -2.34419e-006 -8.34897e-007 7.48907e-007 -3.30455e-006 -1.68012e-007 0.018996 -0.00118308 -5.77232e-005 1.92072e-006 -2.3442e-006 -8.34832e-007 7.48907e-007 -3.30455e-006 -1.68012e-007 0.0122675 -0.00325347 -0.00068589 1.92079e-006 -2.34412e-006 -8.34997e-007 7.48907e-007 -3.30455e-006 -1.68012e-007 6.36111e-015 -9.54166e-015 2.38542e-015 1.92095e-006 -2.34408e-006 -8.35202e-007 -2.5426 -0.334337 -3.90879 -151.782 79.3202 148.438 -4.82782 49.549 -5.23209 4.17032e-007 4.30181e-008 -7.38893e-007 4.52556 -1.58363 2.64621 11.6585 74.4321 -12.0545 3.49679 20.3473 -12.0912 4.6366e-007 -4.16399e-007 -3.97358e-007 
0.498076 -6.61144 75.465 -90.3963 -89.7304 89.3514 -1.97462 -5.47721 5.0133 -3.48281 -11.1041 9.90331 -3.48281 -11.1041 9.90331 6.52276 1.4235 18.7235 -4.59264e-006 -34.3107 -6.66567e-006 15.8024 -24.6591 5.32848 -107.374 -7.06764 -53.2121 -5.47263 -9.10634 -89.7586 -45.2657 -23.9948 16.3143 -6.36111e-015 -3.97569e-015 1.59028e-015 3.31043e-031 -5.96354e-015 3.18055e-015 -6.36111e-015 -6.36111e-015 1.59028e-015 -6.36111e-015 -3.97569e-015 1.59028e-015 -0.0146678 -9.47363e-005 -1.9526e-006 -3.18055e-015 7.55382e-015 1.59028e-015 -6.36111e-015 -3.97569e-015 1.59028e-015 -0.0186916 -0.00117016 5.71816e-005 0 0 -0 -6.36111e-015 -3.97569e-015 1.59028e-015 -0.0122952 -0.00324954 0.000676276 -3.18055e-015 -7.95139e-016 -4.77083e-015 -6.36111e-015 -3.97569e-015 1.59028e-015 3.31043e-031 -5.96354e-015 3.18055e-015 -6.36111e-015 -6.36111e-015 1.59028e-015 -0.954488 -20.0407 -28.1294 48.9325 -8.52149 43.9734 7.23752 -23.7019 93.235 22.8241 8.00406 -8.20975 1.91991e-006 -2.34551e-006 -8.31032e-007 -3.09266e-006 1.38556e-006 1.49901e-006 1.91991e-006 -2.34551e-006 -8.31032e-007 1.91991e-006 -2.34551e-006 -8.31032e-007 0.0150059 -8.93572e-005 4.62981e-006 1.91973e-006 -2.34562e-006 -8.30726e-007 1.91991e-006 -2.34551e-006 -8.31032e-007 0.0189841 -0.00118763 -5.43027e-005 1.91968e-006 -2.34563e-006 -8.30663e-007 1.91991e-006 -2.34551e-006 -8.31032e-007 0.0122682 -0.0032435 -0.000680318 1.91975e-006 -2.34555e-006 -8.30827e-007 1.91991e-006 -2.34551e-006 -8.31032e-007 -3.09266e-006 1.38556e-006 1.49901e-006 1.91991e-006 -2.34551e-006 -8.31032e-007 -2.5424 -0.33706 -3.90875 -151.783 79.3199 148.439 -4.826 49.5266 -5.2277 1.0611e-006 1.2664e-007 1.57273e-006 4.52498 -1.58054 2.62563 11.1477 73.9666 -11.6038 3.32549 19.6772 -12.4061 1.2921e-015 0 -0 
